<?xml version="1.0" encoding="UTF-8" standalone="no"?>
<svg
   id="svg"
   version="1.1"
   width="400"
   height="400"
   viewBox="0, 0, 400,400"
   sodipodi:docname="image2vector.svg"
   inkscape:version="1.3.2 (091e20ef0f, 2023-11-25, custom)"
   xmlns:inkscape="http://www.inkscape.org/namespaces/inkscape"
   xmlns:sodipodi="http://sodipodi.sourceforge.net/DTD/sodipodi-0.dtd"
   xmlns="http://www.w3.org/2000/svg"
   xmlns:svg="http://www.w3.org/2000/svg">
  <defs
     id="defs1" />
  <sodipodi:namedview
     id="namedview1"
     pagecolor="#ffffff"
     bordercolor="#000000"
     borderopacity="0.25"
     inkscape:showpageshadow="2"
     inkscape:pageopacity="0.0"
     inkscape:pagecheckerboard="0"
     inkscape:deskcolor="#d1d1d1"
     inkscape:zoom="1.795"
     inkscape:cx="132.31198"
     inkscape:cy="147.63231"
     inkscape:window-width="1920"
     inkscape:window-height="1080"
     inkscape:window-x="0"
     inkscape:window-y="0"
     inkscape:window-maximized="0"
     inkscape:current-layer="svgg" />
  <g
     id="svgg">
    <path
       id="path1"
       d="m 188.21836,45.349201 c -3.54507,2.080848 -13.69686,7.995743 -22.55953,13.144686 -8.86268,5.14787 -23.84865,13.857998 -33.30217,19.356077 -9.45351,5.497006 -26.08311,15.164302 -36.954654,21.483122 -27.950184,16.246084 -30.699223,17.868224 -30.94523,18.266774 -0.313684,0.50812 0.522092,1.03773 17.409512,11.02946 8.389997,4.96417 23.666022,14.01806 33.946722,20.12095 41.59118,24.6855 71.62436,42.46134 72.97579,43.1929 1.38364,0.74769 1.48999,0.74662 3.22278,-0.0409 2.38057,-1.08071 4.98781,-1.0431 7.35011,0.10421 l 1.92723,0.93568 36.65064,-20.98681 c 20.15748,-11.54295 49.17549,-28.15644 64.48481,-36.9192 17.40199,-9.96165 27.79012,-16.14833 27.716,-16.50821 -0.0656,-0.31584 -5.43686,-3.62134 -11.93614,-7.34581 -6.4993,-3.72442 -30.67023,-17.563085 -53.71317,-30.750741 -23.04295,-13.188731 -47.76175,-27.335706 -54.93031,-31.439392 -7.16856,-4.102611 -13.45301,-7.452164 -13.96542,-7.443571 -0.51243,0.0097 -3.8319,1.719897 -7.37697,3.800745 M 56.354683,123.99606 c -0.348062,0.90453 0.812825,156.51443 1.159812,157.41895 26.7719,-14.73218 93.373325,-52.65519 131.536025,-74.2946 4.83525,-2.7673 2.59259,-4.04675 -30.26698,-23.49951 -23.03435,-13.63563 -80.999452,-48.0056 -96.135823,-57.00256 -5.81069,-3.45376 -5.952493,-3.51284 -6.293034,-2.62228 m 260.560427,11.96192 c -11.22606,6.44451 -41.09595,23.5586 -66.37766,38.03107 -12.64086,7.23624 -37.66579,22.10518 -47.85282,27.94184 -0.8779,0.50299 -1.03077,1.18969 -0.31551,2.46846 0.90857,3.14676 131.77601,74.28854 131.77601,74.28854 2.36147,1.31386 3.57681,0.54259 4.2778,-1.10332 0.8538,-2.465 0.30509,-149.14162 -0.45226,-149.25012 -0.35451,-0.0515 -9.82951,1.17902 -21.05556,7.62353"
       stroke="none"
       fill="#f3bcd4"
       fill-rule="evenodd"
       style="display:inline;stroke-width:1.07426"
       sodipodi:nodetypes="ccccccccccccccscccccccccccssccccc"
       sodipodi:insensitive="true" />
    <path
       id="path2"
       d="m 65.5,275.93 c 0.385,0.45 18.7,11.48 40.7,24.511 22,13.03 49.263,29.184 60.585,35.897 22.422,13.294 22.173,13.17 22.558,11.248 0.141,-0.707 0.257,-33.293 0.257,-72.414 v -71.127 l -0.9,-0.983 m 13.512,-0.017 c -0.914,0.914 -0.936,144.988 -0.022,145.747 0.488,0.404 6.256,-2.754 33.1,-18.123 17.881,-10.237 46.368,-26.546 63.306,-36.243 16.937,-9.697 30.92,-17.945 31.071,-18.328 m -0.972,-72.493 h 0"
       stroke="none"
       fill="#f384b3"
       fill-rule="evenodd"
       style="display:inline"
       sodipodi:nodetypes="ccccsccccccccc" />
    <path
       id="path0"
       d="M 51.207,115.312 50,117.728 v 164.544 l 1.238,2.478 c 1.338,2.677 4.751249,4.83813 6.551088,5.69909 2.436886,1.86108 127.855122,74.32045 131.465932,76.85909 2.484,1.704 5.35998,2.42682 7.00298,2.15982 15.26006,-3.88402 140.40998,-78.22399 142.36103,-79.37681 1.84827,-1.08527 3.17697,-1.94419 4.31497,-3.66319 1.974,-2.983 1.908,0.231 1.783,-86.428 l -0.117,-81.8 -0.83274,-2.06287 C 341.65197,111.76252 245.72027,58.223673 197.881,30.881 c -1.341,-0.577 -2.41426,-0.56004 -3.7576,0.122908 M 219.8,60.071 c 83.436,47.738 102.057,58.434 102.515,58.883 0.937,0.918 0.089,1.711 -4.837,4.526 -8.116,4.637 -75.951,43.48 -96.717,55.38 -20.749,11.891 -20.007,11.546 -22.257,10.34 -1.91,-1.024 -3.662,-1.013 -6.108,0.04 -2.41,1.037 0.981,2.783 -27.796,-14.307 -12.98,-7.708 -34.31,-20.364 -47.4,-28.124 -42.244,-25.044 -45.243,-26.855 -45.478,-27.468 -0.327,-0.853 0.309,-1.366 5.278,-4.251 16.667,-9.68 44.434,-25.82 57.6,-33.482 8.58,-4.993 22.98,-13.366 32,-18.607 9.02,-5.241 18.92,-11.018 22,-12.838 3.494,-2.065 6.051,-3.32 6.8,-3.338 0.874,-0.02 7.505,3.579 24.4,13.246 m -26.873,-2.112 c -3.941,1.833 -4.865,13.812 -1.367,17.727 2.336,2.614 7.446,1.818 8.972,-1.399 1.047,-2.206 0.964,-12.396 -0.114,-14.165 -1.594,-2.614 -4.636,-3.492 -7.491,-2.163 M 193,83.978 c -3.977,1.628 -4.948,14.708 -1.341,18.077 2.491,2.327 6.669,1.739 8.636,-1.214 1.183,-1.777 1.37,-11.94 0.262,-14.274 -1.17,-2.466 -4.81,-3.713 -7.557,-2.589 m -0.2,26.402 c -3.809,2.028 -4.67,14.495 -1.229,17.792 2.733,2.619 7.383,1.84 8.969,-1.502 1.126,-2.374 0.951,-12.517 -0.248,-14.311 -1.726,-2.584 -4.82,-3.401 -7.492,-1.979 M 74.166,134.745 c 4.419,2.609 19.644,11.631 33.834,20.049 14.19,8.417 29.76,17.648 34.6,20.512 4.84,2.863 12.49,7.407 17,10.095 4.51,2.689 12.7,7.542 18.2,10.784 5.5,3.242 10.405,6.337 10.9,6.877 l 0.9,0.983 v 71.127 c 0,39.121 -0.116,71.707 -0.257,72.414 C 150.9266,326.52539 105.36026,300.18622 65.5,275.93 64.78,275.088 64.351,130.982 65.067,130.267 c 0.523,-0.524 1.165,-0.208 9.099,4.478 M 329.748,131.7 c 0.337,1.26 0.258,143.542 -0.081,144.398 -0.30247,0.76718 -126.39796,73.5873 -127.477,72.694 -0.914,-0.759 -0.892,-144.833 0.022,-145.747 0.337,-0.337 3.262,-2.121 6.5,-3.964 9.368,-5.332 91.991,-52.661 110.888,-63.519 8.58,-4.93 9.743,-5.373 10.148,-3.862 m -137.229,5.084 c -2.828,1.724 -4.11,12.66 -1.919,16.371 2.203,3.73 7.514,3.702 9.802,-0.051 1.215,-1.992 1.187,-12.104 -0.04,-14.286 -1.559,-2.773 -5.117,-3.696 -7.843,-2.034 m 0.881,25.76 c -3.428,1.583 -5.114,9.308 -3.388,15.523 1.323,4.762 8.298,5.516 10.487,1.133 1.08,-2.161 1.021,-12.47 -0.081,-14.278 -1.492,-2.446 -4.594,-3.498 -7.018,-2.378 m -22.322,46.615 c -7.388,3.891 -8.678,5.209 -8.678,8.866 0,3.896 3.794,6.432 7.64,5.106 2.603,-0.897 9.741,-5.419 10.406,-6.592 3.606,-6.362 -2.367,-11.067 -9.368,-7.38 m 42.264,-0.92 c -4.715,2.325 -4.502,7.605 0.433,10.762 8.258,5.283 12.328,5.874 14.615,2.123 2.008,-3.294 0.722,-6.808 -3.413,-9.323 -7.103,-4.319 -8.953,-4.885 -11.635,-3.562 m -64.22,13.678 c -9.687,5.032 -12.23,10.573 -6.322,13.774 3.521,1.908 14.002,-2.839 15.852,-7.178 2.49,-5.844 -3.284,-9.84 -9.53,-6.596 m 86.375,-0.106 c -5.704,3.877 -0.775,11.589 9.364,14.651 5.395,1.629 9.79,-5.363 5.944,-9.457 -4.023,-4.282 -12.444,-7.139 -15.308,-5.194 m -110.51,14.095 c -6.438,3.68 -7.079,4.385 -7.129,7.847 -0.082,5.723 4.65,7.231 11.116,3.543 6.791,-3.874 7.826,-4.945 7.826,-8.096 0,-5.815 -4.977,-7.203 -11.813,-3.294 m 135.287,-1.883 c -4.294,1.228 -5.889,6.325 -2.967,9.478 1.995,2.153 9.964,6.27 12.137,6.27 4.759,0 7.233,-4.915 4.616,-9.171 -1.618,-2.631 -11.35,-7.274 -13.786,-6.577 m -155.169,13.522 c -8.328,4.38 -9.501,5.529 -9.504,9.301 -0.003,4.772 4.401,6.972 9.039,4.517 7.845,-4.152 9.742,-5.858 9.862,-8.863 0.199,-4.983 -4.567,-7.496 -9.397,-4.955 m 177.095,0.007 c -4.823,2.215 -4.651,7.638 0.341,10.771 8.732,5.482 12.788,5.933 14.947,1.665 1.926,-3.807 0.301,-6.57 -5.942,-10.099 -5.875,-3.321 -6.734,-3.536 -9.346,-2.337 M 84.6,259.627 c -2.322,0.688 -9.559,5.33 -10.494,6.732 -2.701,4.051 0.005,8.841 4.996,8.841 1.959,0 8.619,-3.405 11.25,-5.751 4.67,-4.166 0.307,-11.615 -5.752,-9.822 m 220.083,1.209 c -6.439,3.398 -3.724,8.795 7.201,14.313 6.325,3.195 12.206,-3.742 7.416,-8.747 -4.119,-4.304 -11.606,-7.155 -14.617,-5.566"
       stroke="none"
       fill="#bc1349"
       fill-rule="evenodd"
       sodipodi:nodetypes="ccccccccccccccccccccccsccsccccccccccccccccccccccsccscccccccsssccccccccccccscccccccccccccccccccscccscccccsccccscccsccccsc"
       style="display:inline;fill:#bc136c;fill-opacity:1"
       sodipodi:insensitive="true" />
  </g>
</svg>
